<svg width="30" height="29" fill="none" xmlns="http://www.w3.org/2000/svg"><g clip-path="url(#clip0_1_371)"><path d="M30 14.073a.736.736 0 00-.206-.47.77.77 0 00-.469-.23l-1.849-.292a.394.394 0 01-.218-.111.378.378 0 01-.107-.217 9.928 9.928 0 00-.122-.67.38.38 0 01.19-.412l1.642-.89a.735.735 0 00.357-.385.712.712 0 00.004-.518l-.285-.767a.732.732 0 00-.348-.393.76.76 0 00-.527-.066l-1.842.352a.406.406 0 01-.243-.032.394.394 0 01-.177-.165 12.537 12.537 0 00-.346-.593.387.387 0 01.032-.458l1.226-1.382a.724.724 0 00.028-.968l-.535-.627a.753.753 0 00-.98-.14l-1.613.944a.396.396 0 01-.46-.044c-.179-.153-.361-.3-.532-.436a.375.375 0 01-.124-.437l.667-1.717a.712.712 0 00.024-.518.732.732 0 00-.334-.402l-.728-.414a.759.759 0 00-.97.199l-1.179 1.445a.34.34 0 01-.404.121 13.585 13.585 0 00-.705-.26.39.39 0 01-.197-.14.375.375 0 01-.073-.228l.028-1.835a.725.725 0 00-.16-.496.76.76 0 00-.458-.27l-.826-.14a.769.769 0 00-.52.097.739.739 0 00-.327.407l-.613 1.746a.386.386 0 01-.15.19.401.401 0 01-.236.067h-.704a.404.404 0 01-.233-.068.388.388 0 01-.149-.19L13.64.524a.74.74 0 00-.325-.412.77.77 0 00-.524-.098l-.827.14a.758.758 0 00-.455.267.725.725 0 00-.162.493l.029 1.84a.378.378 0 01-.077.23.393.393 0 01-.202.14c-.165.063-.523.197-.686.256-.144.05-.302-.005-.428-.148L8.809 1.824a.759.759 0 00-.97-.203l-.726.41a.733.733 0 00-.338.405.713.713 0 00.026.522l.667 1.713a.381.381 0 01-.122.439c-.176.14-.355.281-.534.437a.393.393 0 01-.458.045L4.76 4.63a.765.765 0 00-.982.14l-.533.626a.715.715 0 00.027.968l1.232 1.38a.377.377 0 01.032.455c-.123.191-.24.392-.348.594a.395.395 0 01-.178.166.408.408 0 01-.244.032l-1.84-.347a.762.762 0 00-.527.066.733.733 0 00-.348.392l-.289.766a.714.714 0 00.004.52.737.737 0 00.357.384l1.643.89c.074.04.132.103.167.178a.37.37 0 01.024.24l-.018.089c-.037.196-.072.382-.105.58a.382.382 0 01-.106.214.398.398 0 01-.215.112l-1.853.292a.757.757 0 00-.47.24.724.724 0 00-.19.483v.815a.712.712 0 00.188.485c.122.134.29.218.473.237l1.852.292a.381.381 0 01.324.328c.035.223.072.452.123.67a.38.38 0 01-.028.236.392.392 0 01-.162.176l-1.642.892a.735.735 0 00-.357.384.712.712 0 00-.004.518l.289.768a.732.732 0 00.348.392.761.761 0 00.527.066L3.773 20a.405.405 0 01.243.033.392.392 0 01.177.165c.108.197.224.396.346.593a.386.386 0 01-.032.457L3.281 22.63a.724.724 0 00-.036.969l.535.627a.752.752 0 00.98.14l1.612-.944a.396.396 0 01.46.044c.18.152.362.3.532.435a.376.376 0 01.125.437l-.668 1.718a.712.712 0 00-.024.517c.057.17.176.313.335.402l.729.412a.758.758 0 00.97-.199l1.193-1.432c.101-.122.26-.176.377-.13.251.102.42.159.717.256.08.025.148.075.197.14a.377.377 0 01.074.228l-.03 1.833c-.01.18.048.356.162.497a.76.76 0 00.457.269l.825.14a.764.764 0 00.521-.096.736.736 0 00.327-.408l.613-1.743a.385.385 0 01.15-.19.4.4 0 01.236-.067h.703a.403.403 0 01.234.069c.07.046.12.112.149.19l.61 1.736c.048.15.143.282.273.376a.768.768 0 00.577.134l.827-.141a.758.758 0 00.455-.267.724.724 0 00.162-.492l-.029-1.841c0-.082.026-.16.075-.227a.39.39 0 01.196-.14c.277-.09.472-.163.642-.228l.044-.016c.223-.076.331.016.394.092l1.208 1.452a.759.759 0 00.97.198l.726-.41a.732.732 0 00.335-.403.712.712 0 00-.025-.519l-.666-1.713a.38.38 0 01.122-.439c.175-.14.355-.281.534-.437a.394.394 0 01.46-.044l1.614.943a.764.764 0 00.982-.14l.534-.627a.715.715 0 00-.027-.968l-1.23-1.384a.376.376 0 01-.033-.454c.123-.19.241-.392.348-.594a.409.409 0 01.423-.198l1.837.35a.761.761 0 00.527-.067.733.733 0 00.348-.392l.285-.765a.714.714 0 00-.004-.52.737.737 0 00-.356-.384l-1.645-.892a.384.384 0 01-.164-.177.372.372 0 01-.024-.237l.017-.09c.038-.196.073-.382.106-.58a.383.383 0 01.106-.214.398.398 0 01.215-.112l1.853-.292a.759.759 0 00.47-.24.724.724 0 00.192-.483v-.824zM9.631 20.688c-.09.153-.216.282-.367.378a1.158 1.158 0 01-1.47-.19 9.377 9.377 0 01-2.516-6.398 9.38 9.38 0 012.547-6.386c.12-.132.271-.233.44-.296a1.166 1.166 0 011.033.11c.151.097.276.227.365.38l3.293 5.655a1.094 1.094 0 010 1.108l-3.325 5.64zM15 24.008a9.94 9.94 0 01-2.042-.21 1.152 1.152 0 01-.476-.227 1.117 1.117 0 01-.32-.413 1.09 1.09 0 01.059-1.004l3.317-5.63a1.139 1.139 0 01.988-.559h6.645c.179 0 .355.041.515.12.16.078.298.193.404.334a1.097 1.097 0 01.17.991c-1.262 3.823-4.933 6.599-9.26 6.599zm.542-11.534l-3.282-5.64a1.094 1.094 0 01.267-1.415c.138-.11.302-.187.476-.225A9.894 9.894 0 0115 4.991c4.327 0 7.998 2.776 9.258 6.601a1.087 1.087 0 01-.17.992 1.14 1.14 0 01-.919.453h-6.635c-.202 0-.4-.052-.574-.15a1.124 1.124 0 01-.418-.413z" fill="#FFB342"/></g><defs><clipPath id="clip0_1_371"><path fill="#fff" d="M0 0h30v29H0z"/></clipPath></defs></svg>