<svg width="23" height="28" fill="none" xmlns="http://www.w3.org/2000/svg"><g clip-path="url(#clip0_1_384)" fill="#FFB342"><path d="M20.404 16.618h2.522v-2.174h-7.29c-.132 2.256-1.956 4.046-4.186 4.046s-4.054-1.79-4.186-4.046H.447v2.174h2.081c.111.447.257.886.432 1.316.199.485.435.948.708 1.387l-1.821 1.872 2.868 2.948 1.825-1.875a8.977 8.977 0 002.94 1.243v2.607h4.062v-2.63a9.179 9.179 0 001.517-.503 8.9 8.9 0 001.421-.774l1.793 1.842 2.871-2.95-1.821-1.873a9.542 9.542 0 001.081-2.61zM19.32 4.985v4.39c0 .298-.236.54-.528.54h-.375a.535.535 0 01-.53-.54V3.844a11.043 11.043 0 00-3.61-1.602v7.616c0 .298-.237.54-.53.54H9.615a.535.535 0 01-.53-.54V2.242a11.19 11.19 0 00-3.594 1.602v5.531c0 .298-.237.54-.529.54h-.375a.535.535 0 01-.529-.54v-4.39a11.513 11.513 0 00-3.61 8.398h22.479a11.466 11.466 0 00-3.605-8.398z"/><path d="M13.219 8.95c0 .25-.177.454-.4.454h-2.265c-.218 0-.4-.203-.4-.455V1.37c0-.25.177-.454.4-.454h2.264c.218 0 .4.203.4.455v7.58z"/></g><defs><clipPath id="clip0_1_384"><path fill="#fff" transform="translate(0 .016)" d="M0 0h23v27H0z"/></clipPath></defs></svg>