<svg width="68" height="68" fill="none" xmlns="http://www.w3.org/2000/svg"><path d="M0 34C0 15.222 15.222 0 34 0s34 15.222 34 34-15.222 34-34 34S0 52.778 0 34z" fill="#FFB342"/><g clip-path="url(#clip0_1_337)" stroke="#1C2752" stroke-width="2" stroke-linecap="round" stroke-linejoin="round"><path d="M44.5 24h-21a2.5 2.5 0 00-2.5 2.5v15a2.5 2.5 0 002.5 2.5h21a2.5 2.5 0 002.5-2.5v-15a2.5 2.5 0 00-2.5-2.5z"/><path d="M25 28l9 7 9-7"/></g><defs><clipPath id="clip0_1_337"><path fill="#fff" transform="translate(20 23)" d="M0 0h28v22H0z"/></clipPath></defs></svg>