<svg width="19" height="18" fill="none" xmlns="http://www.w3.org/2000/svg"><g clip-path="url(#clip0_1_317)"><path fill-rule="evenodd" clip-rule="evenodd" d="M18.515 9.507c0-4.74-3.991-8.583-8.913-8.583C4.679.924.688 4.768.688 9.507c0 4.284 3.26 7.835 7.52 8.48v-5.998H5.946V9.507H8.21v-1.89c0-2.151 1.33-3.34 3.367-3.34.975 0 1.995.167 1.995.167v2.113h-1.124c-1.107 0-1.453.661-1.453 1.341v1.61h2.472l-.395 2.481h-2.077v5.998c4.262-.644 7.52-4.195 7.52-8.48z" fill="#1C2752"/></g><defs><clipPath id="clip0_1_317"><path fill="#fff" d="M0 0h19v18H0z"/></clipPath></defs></svg>