<svg width="18" height="19" fill="none" xmlns="http://www.w3.org/2000/svg"><g clip-path="url(#clip0_1_323)" fill="#1C2752"><path d="M12.627 2.355a3.8 3.8 0 012.623 1.05 3.522 3.522 0 011.09 2.526v7.152a3.522 3.522 0 01-1.09 2.526 3.799 3.799 0 01-2.623 1.05H5.199a3.799 3.799 0 01-2.623-1.05 3.522 3.522 0 01-1.09-2.526V5.931a3.521 3.521 0 011.09-2.526A3.799 3.799 0 015.2 2.355h7.428zm0-1.43H5.199C2.34.924 0 3.176 0 5.93v7.152c0 2.754 2.34 5.007 5.2 5.007h7.427c2.86 0 5.2-2.253 5.2-5.007V5.931c0-2.754-2.34-5.007-5.2-5.007z"/><path d="M13.74 5.931c-.22 0-.435-.063-.618-.18a1.083 1.083 0 01-.41-.482 1.035 1.035 0 01-.064-.62c.043-.208.15-.4.305-.55.156-.15.354-.251.57-.293.217-.041.44-.02.644.061.204.082.378.219.5.395a1.045 1.045 0 01-.138 1.356 1.149 1.149 0 01-.789.314zm-4.827.715c.588 0 1.162.168 1.65.483.49.314.87.76 1.095 1.284.225.522.284 1.098.17 1.653a2.83 2.83 0 01-.814 1.465c-.415.4-.945.672-1.521.783a3.077 3.077 0 01-1.717-.163 2.95 2.95 0 01-1.333-1.054 2.786 2.786 0 01-.501-1.59c0-.758.314-1.485.871-2.022a3.033 3.033 0 012.1-.839zm0-1.43a4.58 4.58 0 00-2.476.723 4.33 4.33 0 00-1.641 1.926 4.144 4.144 0 00-.254 2.48 4.245 4.245 0 001.22 2.197 4.512 4.512 0 002.282 1.175c.864.165 1.76.08 2.574-.245a4.424 4.424 0 002-1.58 4.18 4.18 0 00.752-2.384c0-1.139-.47-2.23-1.306-3.035a4.545 4.545 0 00-3.15-1.257z"/></g><defs><clipPath id="clip0_1_323"><path fill="#fff" d="M0 0h18v19H0z"/></clipPath></defs></svg>