<svg width="19" height="19" fill="none" xmlns="http://www.w3.org/2000/svg"><g clip-path="url(#clip0_1_319)"><path d="M9.395 0A9.054 9.054 0 00.34 9.053c0 3.705 2.232 6.89 5.422 8.292-.025-.63-.004-1.39.157-2.077l1.165-4.934s-.291-.578-.291-1.431c0-1.342.776-2.344 1.746-2.344.825 0 1.221.618 1.221 1.358 0 .828-.53 2.065-.8 3.213-.227.962.48 1.742 1.431 1.742 1.714 0 2.87-2.203 2.87-4.814 0-1.984-1.338-3.467-3.768-3.467-2.745 0-4.46 2.049-4.46 4.336 0 .788.235 1.346.6 1.774.165.198.19.28.129.506-.045.165-.142.565-.186.727-.061.23-.247.311-.453.226-1.266-.517-1.856-1.9-1.856-3.459 0-2.57 2.171-5.654 6.473-5.654 3.457 0 5.733 2.502 5.733 5.185 0 3.553-1.977 6.204-4.888 6.204-.978 0-1.896-.53-2.212-1.128 0 0-.525 2.085-.638 2.49-.19.699-.566 1.394-.91 1.94a9.108 9.108 0 002.567.371c5.002 0 9.057-4.053 9.057-9.052 0-5-4.051-9.057-9.053-9.057z" fill="#1C2752"/></g><defs><clipPath id="clip0_1_319"><path fill="#fff" d="M0 0h19v19H0z"/></clipPath></defs></svg>