<svg width="20" height="17" fill="none" xmlns="http://www.w3.org/2000/svg"><g clip-path="url(#clip0_1_321)"><path d="M19.477 2.66a8.03 8.03 0 01-2.25.608 3.88 3.88 0 001.723-2.133 7.87 7.87 0 01-2.489.935A3.944 3.944 0 0013.6.85c-2.166 0-3.918 1.727-3.918 3.855-.002.296.032.592.101.88a11.17 11.17 0 01-8.077-4.031 3.807 3.807 0 00-.533 1.938c0 1.337.697 2.518 1.75 3.21a3.88 3.88 0 01-1.781-.48v.047c0 1.87 1.353 3.426 3.143 3.78-.337.09-.683.136-1.032.136-.247 0-.494-.024-.736-.072.497 1.532 1.946 2.646 3.662 2.678a7.942 7.942 0 01-5.802 1.595 11.088 11.088 0 005.998 1.743c7.216 0 11.159-5.877 11.159-10.974 0-.167-.005-.334-.012-.497a7.896 7.896 0 001.955-1.998z" fill="#1C2752"/></g><defs><clipPath id="clip0_1_321"><path fill="#fff" d="M0 0h20v17H0z"/></clipPath></defs></svg>