<svg width="23" height="28" viewBox="0 0 23 28" fill="none" xmlns="http://www.w3.org/2000/svg">
<g clip-path="url(#clip0_1_384)">
<path d="M20.4043 16.6183H22.9258V14.4441H15.6369C15.5043 16.7 13.6801 18.49 11.4502 18.49C9.2203 18.49 7.39608 16.7 7.26351 14.4441H0.446534L0.446533 16.6183H2.52795C2.63932 17.0652 2.78515 17.5038 2.96015 17.9343C3.15901 18.4192 3.39499 18.8824 3.66809 19.321L1.84652 21.1928L4.71543 24.1408L6.53965 22.2663C6.96124 22.5415 7.40669 22.7813 7.8707 22.9828C8.39304 23.209 8.93129 23.3861 9.48015 23.5087V26.1161H13.5422V23.4869C14.0593 23.3643 14.5657 23.1954 15.0589 22.9828C15.5573 22.7676 16.032 22.5088 16.4801 22.2091L18.2725 24.0509L21.144 21.1002L19.3225 19.2284C19.5717 18.8171 19.7865 18.3838 19.9721 17.9343C20.1471 17.5038 20.2929 17.0652 20.4043 16.6183Z" fill="#FFB342"/>
<path d="M19.3207 4.98477V9.375C19.3207 9.67292 19.0837 9.91464 18.7916 9.91464H18.4167C18.1246 9.91464 17.8875 9.67292 17.8875 9.375V3.84365C16.8016 3.10726 15.5834 2.55638 14.277 2.24158V9.85843C14.277 10.1564 14.0399 10.3981 13.7478 10.3981H9.61353C9.32137 10.3981 9.08435 10.1564 9.08435 9.85843V2.24158C7.79446 2.55638 6.57624 3.11288 5.49031 3.84365V9.375C5.49031 9.67292 5.25328 9.91464 4.96112 9.91464H4.58629C4.29413 9.91464 4.0571 9.67292 4.0571 9.375V4.98477C1.84115 7.07589 0.446533 10.0608 0.446533 13.383H22.9258C22.9313 10.0608 21.5422 7.07589 19.3207 4.98477Z" fill="#FFB342"/>
<path d="M13.2189 8.94948C13.2189 9.20071 13.0416 9.40385 12.8185 9.40385H10.5538C10.3365 9.40385 10.1535 9.20071 10.1535 8.94948V1.36953C10.1535 1.11829 10.3308 0.915161 10.5538 0.915161H12.8185C13.0359 0.915161 13.2189 1.11829 13.2189 1.36953V8.94948Z" fill="#FFB342"/>
</g>
<defs>
<clipPath id="clip0_1_384">
<rect width="23" height="27" fill="white" transform="translate(0 0.015625)"/>
</clipPath>
</defs>
</svg>
