<svg width="55" height="55" fill="none" xmlns="http://www.w3.org/2000/svg"><path d="M0 27.5C0 12.312 12.312 0 27.5 0S55 12.312 55 27.5 42.688 55 27.5 55 0 42.688 0 27.5z" fill="#FFB342"/><g clip-path="url(#clip0_1_636)"><path d="M35.855 19.46a8.174 8.174 0 00-3.017 2.227c-.86.997-1.377 2.012-1.553 3.047a8.179 8.179 0 00-.146 1.407c0 .449.049.82.146 1.113.918-.957 2.08-1.436 3.487-1.436 1.406 0 2.548.41 3.427 1.23.88.821 1.319 1.954 1.319 3.4 0 1.366-.47 2.48-1.407 3.34-.918.859-2.09 1.288-3.515 1.288-1.953 0-3.38-.703-4.278-2.11-.41-.605-.732-1.347-.966-2.226A10.864 10.864 0 0129 27.986c0-2.05.527-3.925 1.582-5.625 1.055-1.699 2.627-3.027 4.717-3.984l.556 1.084zm-12.363 0a8.174 8.174 0 00-3.017 2.227c-.86.997-1.377 2.012-1.553 3.047a8.179 8.179 0 00-.147 1.407c0 .449.05.82.147 1.113.918-.957 2.08-1.436 3.486-1.436 1.406 0 2.549.41 3.428 1.23.879.821 1.318 1.954 1.318 3.4 0 1.366-.468 2.48-1.406 3.34-.918.859-2.09 1.288-3.516 1.288-1.953 0-3.378-.703-4.277-2.11-.41-.605-.732-1.347-.967-2.226a10.864 10.864 0 01-.351-2.754c0-2.05.527-3.925 1.582-5.625 1.054-1.699 2.627-3.027 4.716-3.984l.557 1.084z" fill="#1C2752"/></g><defs><clipPath id="clip0_1_636"><path fill="#fff" transform="translate(16 18)" d="M0 0h24v18H0z"/></clipPath></defs></svg>