<svg width="68" height="68" fill="none" xmlns="http://www.w3.org/2000/svg"><path d="M0 34C0 15.222 15.222 0 34 0s34 15.222 34 34-15.222 34-34 34S0 52.778 0 34z" fill="#FFB342"/><g clip-path="url(#clip0_1_1000)" stroke="#1C2752" stroke-width="2" stroke-linecap="round" stroke-linejoin="round"><path d="M34 19c-5.52 0-10 4.427-10 9.88 0 6.275 6.667 16.218 9.115 19.652.101.145.234.263.388.344a1.063 1.063 0 00.994 0c.154-.081.287-.199.388-.344C37.333 45.099 44 35.16 44 28.88 44 23.427 39.52 19 34 19z"/><path d="M34 34a4 4 0 100-8 4 4 0 000 8z"/></g><defs><clipPath id="clip0_1_1000"><path fill="#fff" transform="translate(23 18)" d="M0 0h22v32H0z"/></clipPath></defs></svg>