<svg width="242" height="48" fill="none" xmlns="http://www.w3.org/2000/svg"><g clip-path="url(#clip0_1_329)"><path d="M57.007 36V11.325h11.375c2.707 0 4.795.572 6.265 1.715 1.47 1.143 2.205 2.707 2.205 4.69 0 1.47-.443 2.718-1.33 3.745-.863 1.027-2.053 1.715-3.57 2.065v-.56c1.774.303 3.139.98 4.095 2.03.98 1.027 1.47 2.368 1.47 4.025 0 2.193-.781 3.908-2.345 5.145-1.54 1.213-3.675 1.82-6.405 1.82h-11.76zm5.215-4.06h5.88c1.354 0 2.392-.257 3.115-.77.724-.513 1.085-1.33 1.085-2.45 0-1.143-.361-1.96-1.085-2.45-.723-.513-1.761-.77-3.115-.77h-5.88v6.44zm0-10.465h5.18c1.424 0 2.474-.257 3.15-.77.677-.513 1.015-1.283 1.015-2.31 0-1.003-.338-1.762-1.015-2.275-.676-.513-1.726-.77-3.15-.77h-5.18v6.125zM81.027 36V10.24h5.285V36h-5.285zm16.045.385c-2.217 0-3.862-.607-4.935-1.82-1.073-1.237-1.61-3.103-1.61-5.6v-10.71h5.285v10.71c0 1.12.222 1.948.665 2.485.467.537 1.178.805 2.135.805 1.05 0 1.913-.362 2.59-1.085.7-.747 1.05-1.738 1.05-2.975v-9.94h5.285V36h-5.145v-3.395h.49c-.537 1.19-1.307 2.123-2.31 2.8-.98.653-2.147.98-3.5.98zm23.745 0c-3.08 0-5.484-.828-7.21-2.485-1.727-1.657-2.59-3.908-2.59-6.755 0-1.843.361-3.453 1.085-4.83.746-1.377 1.773-2.45 3.08-3.22 1.33-.793 2.881-1.19 4.655-1.19 1.75 0 3.208.373 4.375 1.12 1.19.747 2.076 1.797 2.66 3.15.606 1.33.91 2.882.91 4.655v1.225h-12.425V25.43h8.575l-.595.49c0-1.47-.304-2.578-.91-3.325-.584-.77-1.435-1.155-2.555-1.155-1.237 0-2.194.455-2.87 1.365-.654.91-.98 2.217-.98 3.92v.56c0 1.727.42 3.01 1.26 3.85.863.84 2.1 1.26 3.71 1.26.956 0 1.855-.117 2.695-.35a8.508 8.508 0 002.45-1.19l1.47 3.5c-.887.653-1.914 1.155-3.08 1.505-1.144.35-2.38.525-3.71.525zm22.603 0c-2.637 0-4.9-.525-6.79-1.575a10.907 10.907 0 01-4.375-4.41c-1.003-1.913-1.505-4.165-1.505-6.755s.502-4.83 1.505-6.72a10.907 10.907 0 014.375-4.41c1.89-1.05 4.153-1.575 6.79-1.575 1.703 0 3.255.245 4.655.735 1.4.467 2.59 1.155 3.57 2.065l-1.715 4.305c-1.073-.84-2.1-1.435-3.08-1.785-.957-.35-2.042-.525-3.255-.525-2.31 0-4.083.688-5.32 2.065-1.213 1.353-1.82 3.302-1.82 5.845 0 2.543.607 4.503 1.82 5.88 1.237 1.377 3.01 2.065 5.32 2.065 1.213 0 2.298-.175 3.255-.525.98-.35 2.007-.945 3.08-1.785l1.715 4.305c-.98.887-2.17 1.575-3.57 2.065s-2.952.735-4.655.735zm18.844 0c-1.89 0-3.535-.373-4.935-1.12a8.222 8.222 0 01-3.22-3.22c-.746-1.377-1.12-3.022-1.12-4.935 0-1.89.374-3.523 1.12-4.9a7.987 7.987 0 013.22-3.185c1.4-.747 3.045-1.12 4.935-1.12 1.89 0 3.535.373 4.935 1.12a7.702 7.702 0 013.22 3.185c.77 1.377 1.155 3.01 1.155 4.9 0 1.913-.385 3.558-1.155 4.935-.746 1.377-1.82 2.45-3.22 3.22-1.4.747-3.045 1.12-4.935 1.12zm0-3.99c1.214 0 2.17-.432 2.87-1.295.724-.863 1.085-2.193 1.085-3.99 0-1.797-.361-3.115-1.085-3.955-.7-.84-1.656-1.26-2.87-1.26-1.213 0-2.181.42-2.905 1.26-.7.84-1.05 2.158-1.05 3.955 0 1.797.35 3.127 1.05 3.99.724.863 1.692 1.295 2.905 1.295zm38.827 3.99c-1.54 0-2.893-.373-4.06-1.12-1.166-.747-2.076-1.808-2.73-3.185-.653-1.377-.98-3.033-.98-4.97 0-1.913.327-3.558.98-4.935.654-1.377 1.564-2.427 2.73-3.15 1.167-.747 2.52-1.12 4.06-1.12 1.424 0 2.695.35 3.815 1.05 1.144.677 1.89 1.598 2.24 2.765h-.385l.42-3.465h5.075c-.07.77-.14 1.552-.21 2.345a38.15 38.15 0 00-.07 2.275V36h-5.25l-.035-3.325h.42c-.373 1.12-1.12 2.018-2.24 2.695s-2.38 1.015-3.78 1.015zm1.61-3.99c1.214 0 2.194-.432 2.94-1.295.747-.863 1.12-2.193 1.12-3.99 0-1.797-.373-3.115-1.12-3.955-.746-.84-1.726-1.26-2.94-1.26-1.213 0-2.193.42-2.94 1.26-.746.84-1.12 2.158-1.12 3.955 0 1.797.362 3.127 1.085 3.99.747.863 1.739 1.295 2.975 1.295zM216.276 36V22.945c0-.77-.024-1.552-.07-2.345a26.141 26.141 0 00-.175-2.345h5.075l.595 5.18h-.805c.233-1.26.606-2.298 1.12-3.115.536-.817 1.19-1.423 1.96-1.82.793-.397 1.691-.595 2.695-.595.443 0 .793.023 1.05.07.256.023.513.082.77.175l-.035 4.655c-.49-.21-.91-.338-1.26-.385-.327-.07-.747-.105-1.26-.105-.98 0-1.797.187-2.45.56-.63.373-1.109.922-1.435 1.645-.304.723-.455 1.598-.455 2.625V36h-5.32z" fill="#1C2752"/><path d="M174.987 36V10.24h5.285V36h-5.285zm9.605 0V10.24h5.285V36h-5.285z" fill="#FFB342"/><path d="M39.064 30.098H44V26H29.733c-.26 4.252-3.83 7.626-8.195 7.626S13.603 30.252 13.343 26H0v4.098h4.074c.218.842.503 1.669.846 2.48.39.914.851 1.787 1.386 2.614L2.74 38.72l5.616 5.557 3.57-3.533a18.064 18.064 0 005.756 2.342V48h7.95v-4.956a18.454 18.454 0 002.97-.95 17.645 17.645 0 002.781-1.458l3.509 3.471 5.62-5.561-3.565-3.528a17.56 17.56 0 001.271-2.44 17.86 17.86 0 00.846-2.48z" fill="#1C2752"/><path d="M36.944 8.17v8.275c0 .562-.464 1.018-1.036 1.018h-.734a1.027 1.027 0 01-1.036-1.018V6.02A22.036 22.036 0 0027.071 3v14.357c0 .561-.464 1.017-1.036 1.017h-8.092a1.027 1.027 0 01-1.036-1.017V3a22.415 22.415 0 00-7.035 3.02v10.425c0 .562-.463 1.018-1.035 1.018h-.734a1.027 1.027 0 01-1.036-1.018V8.171C2.73 12.112 0 17.738 0 24h44c.01-6.262-2.708-11.888-7.056-15.83z" fill="#FFB342"/><path d="M25 15.644c0 .473-.347.856-.784.856h-4.432c-.426 0-.784-.383-.784-.856V1.356c0-.473.347-.856.784-.856h4.432c.426 0 .784.383.784.856v14.288z" fill="#FFB342"/></g><defs><clipPath id="clip0_1_329"><path fill="#fff" d="M0 0h242v48H0z"/></clipPath></defs></svg>